<svg version="1.1" id="logo" xmlns="http://www.w3.org/2000/svg" x="0" y="0" width="100%" viewBox="0 0 500 500" enable-background="new 0 0 500 500" xml:space="preserve" style="cursor:url(cursor_pointer.e6ff8752.png),pointer"><style>@keyframes glitch{0%{filter:url(#glitch-filter1)}20%{filter:url(#glitch-filter2)}40%{filter:url(#glitch-filter3)}60%{filter:url(#glitch-filter1)}80%{filter:url(#glitch-filter2)}to{filter:url(#glitch-filter3)}}#logo path{animation:.7s infinite glitch}</style><defs><filter id="glitch-filter1"><feOffset in="SourceGraphic" dx="5" result="off1"/><feOffset in="SourceGraphic" dx="-5" result="off2"/><feFlood flood-color="rgba(255,0,0,1)" result="red"/><feComposite in2="off1" in="red" operator="in" result="redOffset"/><feFlood flood-color="rgba(0,0,255,1)" result="blue"/><feComposite in2="off2" in="blue" operator="in" result="blueOffset"/><feGaussianBlur in="redOffset" stdDeviation="2" result="blurredRed"/><feGaussianBlur in="blueOffset" stdDeviation="2" result="blurredBlue"/><feMerge><feMergeNode in="blurredRed"/><feMergeNode in="blurredBlue"/><feMergeNode in="SourceGraphic"/></feMerge></filter><filter id="glitch-filter2"><feOffset in="SourceGraphic" dx="10" dy="1" result="off1"/><feOffset in="SourceGraphic" dx="-10" dy="-1" result="off2"/><feFlood flood-color="rgba(255,0,0,1)" result="red"/><feComposite in2="off1" in="red" operator="in" result="redOffset"/><feFlood flood-color="rgba(0,0,255,1)" result="blue"/><feComposite in2="off2" in="blue" operator="in" result="blueOffset"/><feGaussianBlur in="redOffset" stdDeviation="3" result="blurredRed"/><feGaussianBlur in="blueOffset" stdDeviation="3" result="blurredBlue"/><feMerge><feMergeNode in="blurredRed"/><feMergeNode in="blurredBlue"/><feMergeNode in="SourceGraphic"/></feMerge></filter><filter id="glitch-filter3"><feOffset in="SourceGraphic" dx="12" dy="3" result="off1"/><feOffset in="SourceGraphic" dx="-12" dy="-3" result="off2"/><feFlood flood-color="rgba(255,0,0,1)" result="red"/><feComposite in2="off1" in="red" operator="in" result="redOffset"/><feFlood flood-color="rgba(0,0,255,1)" result="blue"/><feComposite in2="off2" in="blue" operator="in" result="blueOffset"/><feGaussianBlur in="redOffset" stdDeviation="4" result="blurredRed"/><feGaussianBlur in="blueOffset" stdDeviation="4" result="blurredBlue"/><feMerge><feMergeNode in="blurredRed"/><feMergeNode in="blurredBlue"/><feMergeNode in="SourceGraphic"/></feMerge></filter></defs><path fill="none" d="M342 501H1V1h500v500H342m-81.453-387.146 1.179-8.59c-2.482-.844-4.399-.926-5.385-1.926-5.005-5.077-10.309-3.78-15.83-1.265-2.245 1.021-4.582 1.84-6.841 2.83-4.726 2.073-9.427 4.2-13.856 6.177l-.744-6.284c-3.193 2.875-5.259 4.982-7.583 6.749-1.86 1.413-4.097 3.521-6.057 3.409-10.022-.572-16.26 4.058-19.725 13.15-1.986 0-3.915.392-5.61-.071-6.05-1.655-10.566 1.148-14.644 4.877-6.346 5.801-12.633 11.684-18.628 17.842-2.484 2.553-4.905 5.647-6.024 8.947-2.112 6.225-6.075 10.733-10.825 14.898-9.481 8.314-18.49 17.046-21.134 30.119-1.82 9-3.165 18.097-5.035 27.086-.954 4.583-.118 8.44 1.744 12.748 3.778 8.741 6.72 17.852 9.763 26.893.436 1.295-.26 4.286-.82 4.389-3.615.666-2.966 3.327-2.656 5.411.576 3.876 1.147 7.877 2.586 11.48 6.138 15.365 12.565 30.616 18.98 45.87.507 1.206 1.86 2.028 2.584 3.178 1.515 2.405 3.538 4.748 4.18 7.4 3.096 12.8 8.624 23.173 25.461 22.46 3.57-.151 7.296 2.287 10.873 3.726 3.494 1.405 6.802 4.108 10.343 4.4 9.926.822 17.53 6.467 25.88 10.74 4.802 2.458 8.36 7.876 14.967 6.461 3.213-.688 6.566-1.002 9.856-1.007 16.58-.026 33.277-.916 49.02 6.068 1.072.475 3.2.37 3.881-.359 5.667-6.067 11.27-6.686 17.43-1.662.719.585 1.608.961 2.156 1.281.946-2.405 1.216-5.338 2.788-6.482 1.7-1.237 4.616-.804 5.89-.962 1.075-2.907 1.452-5.381 2.77-7.158 2.262-3.052 5.055-5.722 7.726-8.454 4.775-4.884 4.802-4.849 9.404-.491.133.125.586-.088 1.95-.336l-5.136-9.062c2.848-.615 5.497-1.138 8.116-1.782.786-.193 1.476-.754 2.235-1.092 1.876-.835 3.793-2.37 5.646-2.303 3.868.138 5.197-1.993 6.351-5.006.86-2.245 1.909-4.486 3.26-6.464 5.293-7.749 11.193-15.122 15.993-23.158 4.149-6.946 7.113-14.6 10.6-21.94l-1.902-1.22c-2.895 3.263-5.739 6.575-8.714 9.764a15.099 15.099 0 0 1-3.645 2.843c-1.901 1.058-4.171 1.538-5.914 2.783-18.158 12.97-36.22 26.073-54.397 39.013-1.108.789-3.671 1.258-4.362.607-3.045-2.868-5.284-1.092-7.399.806-6.515-7.473-10.526.714-15.19 2.018l-3.215-2.525c-3.05 3.713-5.325 9.26-8.516 9.85-9.672 1.788-19.503 4.682-29.663 1.317-5.106-1.69-10.677-2.124-16.082-2.726-12.023-1.338-24.419-1.2-33.964-9.531l2.603-4.56c-6.477 3.424-10.333.679-14.542-3.701-6.957-7.24-14.654-13.764-21.864-20.77-6.754-6.565-14.113-12.749-19.656-20.246-4.908-6.64-7.639-14.88-11.448-22.354-.587-1.152-1.757-2.032-2.741-2.949-1.272-1.185-2.627-2.281-3.947-3.415l4.464-2.065c-.369-1.824-1.046-4.198-1.3-6.618-.871-8.246-3.958-16.594 1.298-24.6.93-1.417 1.003-3.486 1.198-5.284 1.106-10.205 1.42-20.559 3.392-30.589a125.698 125.698 0 0 1 8.266-26.25c5.269-11.954 15.132-20.491 24.03-29.841 14.005-14.717 31.593-23.616 49.051-32.8 11.877-6.247 24.972-7.28 38.255-6.845 2.742.09 5.537-1.444 8.825-2.847m134.33 125.796 3.797-19.434-4.784 5.796c-.679-8.704-1.016-16.28-1.935-23.784-.731-5.973-.905-12.514-3.558-17.65-5.871-11.37-13.075-22.06-19.873-32.942-5.586-8.943-10.926-17.955-19.465-24.773-8.834-7.054-18.63-12.306-29.189-15.392-10.682-3.122-21.987-5.493-32.854.442-.473.258-1.247-.092-1.875-.054-2.901.172-5.91-.043-8.675.676-4.43 1.152-5.848 6.497-2.88 9.956 4.014 4.68 9.231 7.777 15.226 8.302 7.257.636 13.343 3.55 19.118 7.472 13.208 8.974 26.43 17.933 39.438 27.191 3.807 2.71 7.172 4.337 11.421 1.407.173-.119.6.13.717.16 1.899 8.413 3.055 17.028 10.328 22.903 5.972 4.825 7.275 8.979 5.3 16.34-.342 1.276-.396 3.098.27 4.099 3.174 4.765 6.906 9.17 9.934 14.018 3.233 5.175 8.312 9.612 6.835 16.92-.656 3.248-.11 6.74-.11 10.12l1.683-.048c.338-3.608.675-7.216 1.131-11.725m-233.614-5.15c.035 17.661-.01 35.324.224 52.983.024 1.834 1.49 5.036 2.658 5.218 4.137.643 8.436.25 13.021.25v-47.28l44.059 50.368v-87.174h-15.15v48.118l-42.95-50.265-1.86.624c0 8.72 0 17.439-.002 27.158m111.55 51.215c2.808 3.178 4.179 7.993 10.173 7.151 4.398-.617 8.952-.121 14.311-.121l-21.438-28.56c3.554-2.07 6.878-3.361 9.378-5.58 8.419-7.468 10.675-17.443 9.348-28.042-1.291-10.304-6.977-18.447-17.536-20.108-11.671-1.836-23.66-1.649-35.819-2.361 0 6.109.005 11.079 0 16.05-.024 21.32-.064 42.64-.057 63.96 0 2.008-.839 4.72 2.628 4.798 4.268.094 8.539.022 13.36.022v-27.691l1.1-.356c4.71 6.75 9.419 13.501 14.553 20.838m31.883 7.248c.796.222 1.585.468 2.388.662 14.465 3.492 29.924-1.283 32.53-18.276a95.97 95.97 0 0 0 1.096-14.85c-.052-14.121-.427-28.242-.592-42.364-.035-3 .284-6.006.453-9.26h-16.514v4.905c.001 17.65.024 35.3-.025 52.949-.005 1.963-.303 3.947-.662 5.885-1.512 8.169-8.334 10.913-14.795 5.747-2.847-2.277-3.994-1.268-5.033 1.473-1.338 3.527-2.714 7.04-4.099 10.623 1.562.795 3.036 1.544 5.253 2.506z"/><path fill="#e7ebe6" d="M260.288 114.162c-3.03 1.095-5.824 2.63-8.566 2.54-13.283-.437-26.378.597-38.255 6.845-17.458 9.183-35.046 18.082-49.051 32.799-8.898 9.35-18.761 17.887-24.03 29.841a125.698 125.698 0 0 0-8.266 26.25c-1.972 10.03-2.286 20.384-3.392 30.589-.195 1.798-.268 3.867-1.198 5.285-5.256 8.005-2.17 16.353-1.299 24.6.255 2.419.932 4.793 1.3 6.617l-4.463 2.065c1.32 1.134 2.675 2.23 3.947 3.415.984.917 2.154 1.797 2.741 2.949 3.81 7.474 6.54 15.714 11.448 22.354 5.543 7.497 12.902 13.68 19.656 20.245 7.21 7.007 14.907 13.53 21.864 20.77 4.21 4.38 8.065 7.126 14.542 3.702l-2.603 4.56c9.545 8.33 21.941 8.193 33.964 9.531 5.405.602 10.976 1.035 16.082 2.726 10.16 3.365 19.99.471 29.663-1.318 3.191-.59 5.466-6.136 8.516-9.849l3.214 2.525c4.665-1.304 8.676-9.491 15.191-2.018 2.115-1.898 4.354-3.674 7.399-.806.69.651 3.254.182 4.362-.607 18.178-12.94 36.24-26.043 54.397-39.013 1.743-1.245 4.013-1.725 5.914-2.783a15.099 15.099 0 0 0 3.645-2.843c2.975-3.19 5.819-6.501 8.714-9.765l1.902 1.22c-3.487 7.341-6.451 14.995-10.6 21.941-4.8 8.036-10.7 15.41-15.993 23.158-1.351 1.978-2.4 4.219-3.26 6.464-1.154 3.013-2.483 5.144-6.35 5.006-1.854-.066-3.771 1.468-5.647 2.303-.759.338-1.449.899-2.235 1.092-2.62.644-5.268 1.167-8.116 1.782l5.136 9.062c-1.364.248-1.817.461-1.95.336-4.602-4.358-4.63-4.393-9.404.49-2.671 2.733-5.464 5.403-7.726 8.455-1.318 1.777-1.695 4.251-2.77 7.158-1.274.158-4.19-.275-5.89.962-1.572 1.144-1.842 4.077-2.788 6.482-.548-.32-1.437-.696-2.155-1.281-6.16-5.024-11.764-4.405-17.43 1.662-.681.73-2.81.834-3.882.359-15.743-6.984-32.44-6.094-49.02-6.068-3.29.005-6.643.319-9.856 1.007-6.608 1.415-10.165-4.003-14.966-6.46-8.351-4.274-15.955-9.919-25.88-10.74-3.542-.293-6.85-2.996-10.344-4.401-3.577-1.439-7.303-3.877-10.873-3.726-16.837.713-22.365-9.66-25.461-22.46-.642-2.652-2.665-4.995-4.18-7.4-.724-1.15-2.077-1.972-2.585-3.179-6.414-15.253-12.841-30.504-18.979-45.87-1.439-3.602-2.01-7.603-2.586-11.479-.31-2.084-.959-4.745 2.656-5.411.56-.103 1.256-3.094.82-4.39-3.042-9.04-5.985-18.15-9.763-26.892-1.862-4.309-2.698-8.165-1.744-12.748 1.87-8.989 3.216-18.086 5.035-27.086 2.643-13.073 11.653-21.805 21.134-30.12 4.75-4.164 8.713-8.672 10.825-14.897 1.119-3.3 3.54-6.394 6.024-8.947 5.995-6.158 12.282-12.04 18.628-17.842 4.078-3.729 8.593-6.532 14.643-4.877 1.696.463 3.625.07 5.61.07 3.466-9.09 9.704-13.721 19.726-13.149 1.96.112 4.197-1.996 6.057-3.41 2.324-1.766 4.39-3.873 7.583-6.748l.744 6.284c4.429-1.978 9.13-4.104 13.856-6.176 2.26-.991 4.596-1.81 6.84-2.831 5.522-2.515 10.826-3.812 15.831 1.265.986 1 2.903 1.082 5.385 1.926-.356 2.594-.767 5.592-1.438 8.898zM394.818 240.1a2621.59 2621.59 0 0 0-1.072 11.275l-1.684.048c0-3.38-.545-6.872.111-10.12 1.477-7.308-3.602-11.745-6.835-16.92-3.028-4.849-6.76-9.253-9.934-14.018-.666-1.001-.612-2.823-.27-4.1 1.975-7.36.672-11.514-5.3-16.339-7.273-5.875-8.43-14.49-10.328-22.903-.117-.03-.544-.279-.717-.16-4.249 2.93-7.614 1.302-11.421-1.407-13.008-9.258-26.23-18.217-39.438-27.19-5.775-3.924-11.861-6.837-19.118-7.473-5.995-.525-11.212-3.622-15.226-8.302-2.968-3.46-1.55-8.804 2.88-9.956 2.764-.72 5.774-.504 8.675-.676.628-.038 1.402.312 1.875.054 10.867-5.935 22.172-3.564 32.854-.442 10.56 3.086 20.355 8.338 29.189 15.392 8.539 6.818 13.88 15.83 19.465 24.773 6.798 10.882 14.002 21.572 19.873 32.942 2.653 5.136 2.827 11.677 3.558 17.65.919 7.504 1.256 15.08 1.935 23.784l4.784-5.796c-1.414 7.234-2.605 13.334-3.856 19.884z"/><path fill="#e7ebe6" d="M161.264 234v-26.658l1.86-.624 42.95 50.265v-48.118h15.15v87.174l-44.058-50.368v47.28c-4.585 0-8.884.393-13.021-.25-1.168-.182-2.634-3.384-2.658-5.218-.234-17.659-.19-35.322-.223-53.483zM272.601 285.422c-4.921-7.044-9.63-13.795-14.34-20.545l-1.1.356v27.691c-4.821 0-9.092.072-13.36-.022-3.467-.077-2.628-2.79-2.628-4.798-.007-21.32.033-42.64.057-63.96.005-4.971 0-9.941 0-16.05 12.158.712 24.148.525 35.82 2.36 10.558 1.662 16.244 9.805 17.535 20.11 1.327 10.598-.929 20.573-9.348 28.041-2.5 2.219-5.824 3.51-9.378 5.58l21.438 28.56c-5.359 0-9.913-.496-14.311.121-5.994.842-7.365-3.973-10.385-7.444m-4.827-64.212c-2.486-.054-5.039-.468-7.43-.018-1.271.238-3.205 1.948-3.232 3.034-.25 9.924-.148 19.856-.148 30.153 3.369 0 6.329.26 9.227-.05 7.771-.834 13.894-10.214 12.775-18.96-.855-6.68-3.023-12.172-11.192-14.159zM304.325 292.857c-1.845-.856-3.319-1.605-4.881-2.4 1.385-3.583 2.761-7.096 4.1-10.623 1.038-2.74 2.185-3.75 5.032-1.473 6.461 5.166 13.283 2.422 14.795-5.747.359-1.938.657-3.922.662-5.885.049-17.65.026-35.3.025-52.949v-4.904h16.514c-.17 3.253-.488 6.258-.453 9.26.165 14.121.54 28.242.592 42.364a95.97 95.97 0 0 1-1.096 14.849c-2.606 16.993-18.065 21.768-32.53 18.276-.803-.194-1.592-.44-2.76-.768z"/><path fill="none" d="M268.118 221.45c7.825 1.747 9.993 7.24 10.848 13.918 1.12 8.747-5.004 18.127-12.775 18.96-2.898.31-5.858.05-9.227.05 0-10.296-.103-20.228.148-30.152.027-1.086 1.96-2.796 3.232-3.034 2.391-.45 4.944-.036 7.774.258z"/></svg>