<svg version="1.1" id="logo" xmlns="http://www.w3.org/2000/svg" xmlns:xlink="http://www.w3.org/1999/xlink" x="0px" y="0px"
	 width="100%" viewBox="0 0 500 500" enable-background="new 0 0 500 500" xml:space="preserve" >
	 <style>
    @keyframes glitch {
      0% {
        filter: url(#glitch-filter1);
      }
      20% {
        filter: url(#glitch-filter2);
      }
      40% {
        filter: url(#glitch-filter3);
      }
      60% {
        filter: url(#glitch-filter1);
      }
      80% {
        filter: url(#glitch-filter2);
      }
      100% {
        filter: url(#glitch-filter3);
      }
    }

    #logo path {
      animation: glitch 0.7s infinite;
    }

	svg {
		cursor: url(../cursor_pointer.png), pointer; 
	} 
  </style>

  <!-- Define filters to create red and blue bleed/glitch effects -->
  <defs>
    <!-- First Glitch Filter: Slight offset, with blur -->
    <filter id="glitch-filter1">
      <feOffset in="SourceGraphic" dx="5" dy="0" result="off1"/>
      <feOffset in="SourceGraphic" dx="-5" dy="0" result="off2"/>
      <!-- Red Bleed -->
      <feFlood flood-color="rgba(255,0,0,1)" result="red"/>
      <feComposite in2="off1" in="red" operator="in" result="redOffset"/>
      <!-- Blue Bleed -->
      <feFlood flood-color="rgba(0,0,255,1)" result="blue"/>
      <feComposite in2="off2" in="blue" operator="in" result="blueOffset"/>
      <!-- Apply Blur to the offsets -->
      <feGaussianBlur in="redOffset" stdDeviation="2" result="blurredRed"/>
      <feGaussianBlur in="blueOffset" stdDeviation="2" result="blurredBlue"/>
      <feMerge>
        <feMergeNode in="blurredRed"/>
        <feMergeNode in="blurredBlue"/>
        <!-- Overlay the original image -->
        <feMergeNode in="SourceGraphic"/>
      </feMerge>
    </filter>

    <!-- Second Glitch Filter: Larger offsets, with blur -->
    <filter id="glitch-filter2">
      <feOffset in="SourceGraphic" dx="10" dy="1" result="off1"/>
      <feOffset in="SourceGraphic" dx="-10" dy="-1" result="off2"/>
      <!-- Red Bleed -->
      <feFlood flood-color="rgba(255,0,0,1)" result="red"/>
      <feComposite in2="off1" in="red" operator="in" result="redOffset"/>
      <!-- Blue Bleed -->
      <feFlood flood-color="rgba(0,0,255,1)" result="blue"/>
      <feComposite in2="off2" in="blue" operator="in" result="blueOffset"/>
      <!-- Apply Blur to the offsets -->
      <feGaussianBlur in="redOffset" stdDeviation="3" result="blurredRed"/>
      <feGaussianBlur in="blueOffset" stdDeviation="3" result="blurredBlue"/>
      <feMerge>
        <feMergeNode in="blurredRed"/>
        <feMergeNode in="blurredBlue"/>
        <feMergeNode in="SourceGraphic"/>
      </feMerge>
    </filter>

    <!-- Third Glitch Filter: Extreme offsets, with more blur -->
    <filter id="glitch-filter3">
      <feOffset in="SourceGraphic" dx="12" dy="3" result="off1"/>
      <feOffset in="SourceGraphic" dx="-12" dy="-3" result="off2"/>
      <!-- Red Bleed -->
      <feFlood flood-color="rgba(255,0,0,1)" result="red"/>
      <feComposite in2="off1" in="red" operator="in" result="redOffset"/>
      <!-- Blue Bleed -->
      <feFlood flood-color="rgba(0,0,255,1)" result="blue"/>
      <feComposite in2="off2" in="blue" operator="in" result="blueOffset"/>
      <!-- Apply Blur to the offsets -->
      <feGaussianBlur in="redOffset" stdDeviation="4" result="blurredRed"/>
      <feGaussianBlur in="blueOffset" stdDeviation="4" result="blurredBlue"/>
      <feMerge>
        <feMergeNode in="blurredRed"/>
        <feMergeNode in="blurredBlue"/>
        <feMergeNode in="SourceGraphic"/>
      </feMerge>
    </filter>
  </defs>
<path fill="none" opacity="1.000000" stroke="none" 
	d="
M342.000000,501.000000 
	C228.000031,501.000000 114.500053,501.000000 1.000061,501.000000 
	C1.000041,334.333405 1.000041,167.666794 1.000020,1.000150 
	C167.666565,1.000100 334.333130,1.000100 500.999756,1.000050 
	C500.999847,167.666519 500.999847,334.333038 500.999939,500.999786 
	C448.166656,501.000000 395.333344,501.000000 342.000000,501.000000 
M260.547150,113.854042 
	C260.958618,110.855888 261.370056,107.857735 261.725952,105.264343 
	C259.243622,104.420403 257.326965,104.337860 256.340973,103.337769 
	C251.335693,98.260979 246.032486,99.558350 240.510406,102.072510 
	C238.265839,103.094444 235.929276,103.912613 233.669739,104.903694 
	C228.944443,106.976326 224.242523,109.102242 219.813766,111.079994 
	C219.573212,109.048737 219.394669,107.541153 219.069565,104.795959 
	C215.876770,107.670540 213.811111,109.777870 211.486679,111.544800 
	C209.627487,112.958076 207.390305,115.066010 205.430069,114.954041 
	C195.408463,114.381599 189.169556,119.012299 185.704681,128.103455 
	C183.718933,128.103455 181.789505,128.496323 180.094345,128.032715 
	C174.044098,126.378021 169.529083,129.181366 165.450607,132.909988 
	C159.105164,138.711166 152.817612,144.594238 146.823380,150.752014 
	C144.338531,153.304688 141.917892,156.399231 140.798599,159.698715 
	C138.686951,165.923508 134.724152,170.431961 129.974396,174.596863 
	C120.492943,182.910873 111.483292,191.643372 108.840340,204.715759 
	C107.020676,213.716034 105.675491,222.813187 103.805077,231.801880 
	C102.851471,236.384644 103.686935,240.241440 105.549240,244.550095 
	C109.327309,253.291153 112.269783,262.402008 115.312225,271.442688 
	C115.748207,272.738190 115.051758,275.728851 114.491959,275.831970 
	C110.877357,276.497894 111.525795,279.158783 111.835670,281.243408 
	C112.411827,285.119476 112.983467,289.119629 114.422455,292.722504 
	C120.559570,308.088318 126.987022,323.338776 133.401337,338.592255 
	C133.908737,339.798889 135.262009,340.621460 135.986069,341.771210 
	C137.500549,344.176178 139.524155,346.519135 140.165665,349.171295 
	C143.262039,361.971924 148.790024,372.343811 165.627289,371.630798 
	C169.196976,371.479645 172.923416,373.918182 176.499924,375.356720 
	C179.993881,376.762024 183.301575,379.464813 186.843277,379.757812 
	C196.769379,380.579010 204.372681,386.223846 212.723816,390.497864 
	C217.525497,392.955261 221.082291,398.373383 227.690186,396.957977 
	C230.903320,396.269745 234.255920,395.955902 237.546127,395.950775 
	C254.125656,395.924896 270.823425,395.035400 286.565643,402.018921 
	C287.637543,402.494415 289.766602,402.389221 290.447235,401.660431 
	C296.114441,395.593018 301.717651,394.973572 307.877686,399.997528 
	C308.595825,400.583160 309.485077,400.959045 310.032837,401.279022 
	C310.978607,398.874054 311.248871,395.941132 312.821014,394.796936 
	C314.520996,393.559601 317.436584,393.992584 318.710541,393.834747 
	C319.786499,390.928436 320.163208,388.453766 321.480682,386.676575 
	C323.742645,383.625336 326.536041,380.954865 329.206940,378.222900 
	C333.981812,373.338837 334.008759,373.373993 338.611053,377.731812 
	C338.743591,377.857239 339.196625,377.644135 340.561005,377.395844 
	C338.873993,374.419373 337.353668,371.736969 335.425171,368.334412 
	C338.273254,367.719330 340.921814,367.196045 343.540710,366.552155 
	C344.327240,366.358765 345.017059,365.797699 345.775665,365.460052 
	C347.652039,364.624786 349.568695,363.090912 351.422058,363.157104 
	C355.290497,363.295166 356.619202,361.163818 357.773376,358.150940 
	C358.633453,355.905670 359.681610,353.665405 361.032898,351.687195 
	C366.326202,343.938202 372.225861,336.564545 377.025574,328.528992 
	C381.174530,321.582916 384.138580,313.929077 387.626434,306.588135 
	C386.992432,306.181549 386.358459,305.774994 385.724457,305.368408 
	C382.829041,308.631897 379.985229,311.943542 377.010162,315.132751 
	C375.968811,316.249023 374.698730,317.233368 373.364960,317.975830 
	C371.463837,319.034149 369.193726,319.514435 367.450958,320.759277 
	C349.293488,333.728607 331.231506,346.831757 313.053680,359.772247 
	C311.946228,360.560638 309.382660,361.030029 308.691711,360.379181 
	C305.647339,357.511353 303.407623,359.287018 301.293243,361.185394 
	C294.778442,353.711578 290.767303,361.898529 286.102264,363.202667 
	C284.598633,362.021973 283.283661,360.989380 282.887665,360.678436 
	C279.838135,364.391449 277.563446,369.937164 274.372253,370.527405 
	C264.699829,372.316345 254.869354,375.209595 244.708542,371.844727 
	C239.603500,370.154144 234.031845,369.721039 228.626678,369.119324 
	C216.603973,367.780884 204.208313,367.918091 194.662613,359.588043 
	C195.520172,358.085754 196.392899,356.556885 197.265625,355.028015 
	C190.788727,358.451508 186.933289,355.706787 182.724106,351.326691 
	C175.766525,344.086487 168.069565,337.563202 160.860474,330.556427 
	C154.106232,323.991730 146.746719,317.808228 141.204285,310.310638 
	C136.295776,303.670563 133.565353,295.430634 129.756104,287.956787 
	C129.169159,286.805206 127.998520,285.924988 127.014862,285.008270 
	C125.742935,283.822906 124.387642,282.726990 123.068245,281.592560 
	C124.473648,280.942505 125.879044,280.292450 127.531601,279.528107 
	C127.163315,277.704346 126.486435,275.329559 126.231110,272.910278 
	C125.360817,264.664185 122.273972,256.316345 127.529556,248.310913 
	C128.460312,246.893127 128.533401,244.824066 128.728302,243.026031 
	C129.834442,232.820953 130.147903,222.467392 132.119766,212.437378 
	C133.881210,203.477570 136.701904,194.545258 140.385880,186.187347 
	C145.654968,174.233215 155.517700,165.695648 164.415558,156.345612 
	C178.420654,141.628845 196.008652,132.730286 213.467270,123.546562 
	C225.343994,117.299072 238.439453,116.265251 251.721664,116.701279 
	C254.463531,116.791275 257.258728,115.256531 260.547150,113.854042 
M394.877045,239.649734 
	C396.068756,233.549652 397.260468,227.449570 398.673645,220.215744 
	C396.814758,222.468262 395.686981,223.834869 393.890076,226.012299 
	C393.211365,217.308090 392.873932,209.732269 391.955109,202.227631 
	C391.223785,196.254883 391.049866,189.714478 388.397430,184.578278 
	C382.525604,173.208084 375.321838,162.517929 368.524353,151.635986 
	C362.938202,142.693268 357.597900,133.681259 349.058929,126.862976 
	C340.224670,119.808891 330.429932,114.556702 319.870056,111.470726 
	C309.187714,108.348953 297.883453,105.978424 287.015503,111.913193 
	C286.543243,112.171082 285.768768,111.821213 285.141266,111.858589 
	C282.240021,112.031380 279.230316,111.815720 276.466370,112.534599 
	C272.036713,113.686714 270.618500,119.031799 273.585785,122.491074 
	C277.599701,127.170525 282.817444,130.267746 288.811890,130.792953 
	C296.068512,131.428726 302.155090,134.342224 307.929688,138.265396 
	C321.137848,147.238861 334.360046,156.198013 347.367920,165.456070 
	C351.174500,168.165298 354.540192,169.792938 358.789459,166.863297 
	C358.962250,166.744171 359.388794,166.993118 359.506104,167.022583 
	C361.404877,175.435684 362.561127,184.050644 369.834473,189.926300 
	C375.806244,194.750519 377.108643,198.904739 375.134827,206.265137 
	C374.792328,207.542267 374.737579,209.363693 375.404236,210.364807 
	C378.577698,215.130188 382.309937,219.534348 385.338196,224.382553 
	C388.570679,229.557770 393.649506,233.995178 392.173187,241.303192 
	C391.516998,244.551361 392.062378,248.042236 392.062378,251.422958 
	C392.623596,251.407043 393.184814,251.391113 393.746033,251.375198 
	C394.083557,247.767120 394.421082,244.159042 394.877045,239.649734 
M161.262772,234.499954 
	C161.297775,252.161484 161.252899,269.824097 161.487122,287.482971 
	C161.511459,289.316986 162.977097,292.519135 164.144714,292.700592 
	C168.282471,293.343506 172.581070,292.951233 177.166275,292.951233 
	C177.166275,276.672913 177.166275,261.357727 177.166275,245.670685 
	C191.843033,262.449188 206.149826,278.804718 221.224945,296.038605 
	C221.224945,265.988220 221.224945,237.477722 221.224945,208.865173 
	C215.931946,208.865173 211.159775,208.865173 206.074371,208.865173 
	C206.074371,224.703690 206.074371,240.315552 206.074371,256.983002 
	C191.211121,239.588242 177.167938,223.153229 163.124756,206.718201 
	C162.504761,206.926300 161.884781,207.134384 161.264786,207.342484 
	C161.264786,216.061646 161.264786,224.780792 161.262772,234.499954 
M272.813843,285.715027 
	C275.621063,288.892883 276.991882,293.707520 282.985718,292.865967 
	C287.383636,292.248505 291.937958,292.744934 297.297028,292.744934 
	C289.606537,282.499237 282.752716,273.368134 275.859192,264.184204 
	C279.413116,262.114502 282.736603,260.823578 285.237213,258.605164 
	C293.656036,251.136505 295.912262,241.161575 294.584595,230.563370 
	C293.293732,220.259323 287.608185,212.116104 277.049103,210.454849 
	C265.377960,208.618591 253.388458,208.805984 241.230423,208.094040 
	C241.230423,214.202515 241.235214,219.172852 241.229599,224.143204 
	C241.205521,245.463577 241.165985,266.783966 241.172607,288.104340 
	C241.173233,290.112213 240.334244,292.824799 243.801086,292.901703 
	C248.068573,292.996368 252.339767,292.924316 257.160156,292.924316 
	C257.160156,283.220520 257.160156,274.226715 257.160156,265.232910 
	C257.527283,265.114105 257.894379,264.995331 258.261505,264.876526 
	C262.970642,271.627289 267.679810,278.378021 272.813843,285.715027 
M304.697296,292.962708 
	C305.492767,293.184570 306.282288,293.431000 307.084564,293.624695 
	C321.550171,297.117432 337.009033,292.342468 339.615448,275.348816 
	C340.366058,270.455048 340.729889,265.451202 340.711487,260.499878 
	C340.658997,246.377838 340.283875,232.257263 340.119110,218.135147 
	C340.084076,215.134323 340.402893,212.129379 340.571686,208.875641 
	C334.722137,208.875641 329.613831,208.875641 324.057953,208.875641 
	C324.057953,210.550995 324.057831,212.165604 324.057953,213.780212 
	C324.059448,231.429749 324.082001,249.079346 324.033051,266.728729 
	C324.027618,268.692322 323.730042,270.676056 323.371277,272.614044 
	C321.858856,280.782898 315.037109,283.526886 308.575958,278.360626 
	C305.728638,276.083954 304.582306,277.093262 303.543121,279.833679 
	C302.205383,283.361450 300.828552,286.874420 299.443970,290.457336 
	C301.006470,291.251984 302.479980,292.001343 304.697296,292.962708 
z"/>
<path fill="#e7ebe6" opacity="1.000000" stroke="none" 
	d="
M260.288269,114.162346 
	C257.258728,115.256531 254.463531,116.791275 251.721664,116.701279 
	C238.439453,116.265251 225.343994,117.299072 213.467270,123.546562 
	C196.008652,132.730286 178.420654,141.628845 164.415558,156.345612 
	C155.517700,165.695648 145.654968,174.233215 140.385880,186.187347 
	C136.701904,194.545258 133.881210,203.477570 132.119766,212.437378 
	C130.147903,222.467392 129.834442,232.820953 128.728302,243.026031 
	C128.533401,244.824066 128.460312,246.893127 127.529556,248.310913 
	C122.273972,256.316345 125.360817,264.664185 126.231110,272.910278 
	C126.486435,275.329559 127.163315,277.704346 127.531601,279.528107 
	C125.879044,280.292450 124.473648,280.942505 123.068237,281.592560 
	C124.387642,282.726990 125.742935,283.822906 127.014862,285.008270 
	C127.998520,285.924988 129.169159,286.805206 129.756104,287.956787 
	C133.565353,295.430634 136.295776,303.670563 141.204285,310.310638 
	C146.746719,317.808228 154.106232,323.991730 160.860474,330.556427 
	C168.069565,337.563202 175.766525,344.086487 182.724106,351.326691 
	C186.933289,355.706787 190.788727,358.451508 197.265625,355.028015 
	C196.392899,356.556885 195.520172,358.085754 194.662613,359.588043 
	C204.208313,367.918091 216.603973,367.780884 228.626678,369.119324 
	C234.031845,369.721039 239.603500,370.154144 244.708542,371.844727 
	C254.869354,375.209595 264.699829,372.316345 274.372253,370.527405 
	C277.563446,369.937164 279.838135,364.391449 282.887665,360.678436 
	C283.283661,360.989380 284.598633,362.021973 286.102264,363.202667 
	C290.767303,361.898529 294.778442,353.711578 301.293243,361.185394 
	C303.407623,359.287018 305.647339,357.511353 308.691711,360.379181 
	C309.382660,361.030029 311.946228,360.560638 313.053680,359.772247 
	C331.231506,346.831757 349.293488,333.728607 367.450958,320.759277 
	C369.193726,319.514435 371.463837,319.034149 373.364960,317.975830 
	C374.698730,317.233368 375.968811,316.249023 377.010162,315.132751 
	C379.985229,311.943542 382.829041,308.631897 385.724457,305.368408 
	C386.358459,305.774994 386.992432,306.181549 387.626434,306.588135 
	C384.138580,313.929077 381.174530,321.582916 377.025574,328.528992 
	C372.225861,336.564545 366.326202,343.938202 361.032898,351.687195 
	C359.681610,353.665405 358.633453,355.905670 357.773376,358.150940 
	C356.619202,361.163818 355.290497,363.295166 351.422058,363.157104 
	C349.568695,363.090912 347.652039,364.624786 345.775665,365.460052 
	C345.017059,365.797699 344.327240,366.358765 343.540710,366.552155 
	C340.921814,367.196045 338.273254,367.719330 335.425171,368.334412 
	C337.353668,371.736969 338.873993,374.419373 340.561005,377.395844 
	C339.196625,377.644135 338.743591,377.857239 338.611053,377.731812 
	C334.008759,373.373993 333.981812,373.338837 329.206940,378.222900 
	C326.536041,380.954865 323.742645,383.625336 321.480682,386.676575 
	C320.163208,388.453766 319.786499,390.928436 318.710541,393.834747 
	C317.436584,393.992584 314.520996,393.559601 312.821014,394.796936 
	C311.248871,395.941132 310.978607,398.874054 310.032837,401.279022 
	C309.485077,400.959045 308.595825,400.583160 307.877686,399.997528 
	C301.717651,394.973572 296.114441,395.593018 290.447235,401.660431 
	C289.766602,402.389221 287.637543,402.494415 286.565643,402.018921 
	C270.823425,395.035400 254.125656,395.924896 237.546127,395.950775 
	C234.255920,395.955902 230.903320,396.269745 227.690186,396.957977 
	C221.082291,398.373383 217.525497,392.955261 212.723816,390.497864 
	C204.372681,386.223846 196.769379,380.579010 186.843277,379.757812 
	C183.301575,379.464813 179.993881,376.762024 176.499924,375.356720 
	C172.923416,373.918182 169.196976,371.479645 165.627289,371.630798 
	C148.790024,372.343811 143.262039,361.971924 140.165665,349.171295 
	C139.524155,346.519135 137.500549,344.176178 135.986069,341.771210 
	C135.262009,340.621460 133.908737,339.798889 133.401337,338.592255 
	C126.987022,323.338776 120.559570,308.088318 114.422455,292.722504 
	C112.983467,289.119629 112.411827,285.119476 111.835670,281.243408 
	C111.525795,279.158783 110.877357,276.497894 114.491959,275.831970 
	C115.051758,275.728851 115.748207,272.738190 115.312225,271.442688 
	C112.269783,262.402008 109.327309,253.291153 105.549240,244.550095 
	C103.686935,240.241440 102.851471,236.384644 103.805077,231.801880 
	C105.675491,222.813187 107.020676,213.716034 108.840340,204.715759 
	C111.483292,191.643372 120.492943,182.910873 129.974396,174.596863 
	C134.724152,170.431961 138.686951,165.923508 140.798599,159.698715 
	C141.917892,156.399231 144.338531,153.304688 146.823380,150.752014 
	C152.817612,144.594238 159.105164,138.711166 165.450607,132.909988 
	C169.529083,129.181366 174.044098,126.378021 180.094345,128.032715 
	C181.789505,128.496323 183.718933,128.103455 185.704681,128.103455 
	C189.169556,119.012299 195.408463,114.381599 205.430069,114.954041 
	C207.390305,115.066010 209.627487,112.958076 211.486679,111.544800 
	C213.811111,109.777870 215.876770,107.670540 219.069565,104.795959 
	C219.394669,107.541153 219.573212,109.048737 219.813766,111.079994 
	C224.242523,109.102242 228.944443,106.976326 233.669739,104.903694 
	C235.929276,103.912613 238.265839,103.094444 240.510406,102.072510 
	C246.032486,99.558350 251.335693,98.260979 256.340973,103.337769 
	C257.326965,104.337860 259.243622,104.420403 261.725952,105.264343 
	C261.370056,107.857735 260.958618,110.855888 260.288269,114.162346 
z"/>
<path fill="#e7ebe6" opacity="1.000000" stroke="none" 
	d="
M394.817810,240.100342 
	C394.421082,244.159042 394.083557,247.767120 393.746033,251.375198 
	C393.184814,251.391113 392.623596,251.407043 392.062378,251.422958 
	C392.062378,248.042236 391.516998,244.551361 392.173187,241.303192 
	C393.649506,233.995178 388.570679,229.557770 385.338196,224.382553 
	C382.309937,219.534348 378.577698,215.130188 375.404236,210.364807 
	C374.737579,209.363693 374.792328,207.542267 375.134827,206.265137 
	C377.108643,198.904739 375.806244,194.750519 369.834473,189.926300 
	C362.561127,184.050644 361.404877,175.435684 359.506104,167.022583 
	C359.388794,166.993118 358.962250,166.744171 358.789459,166.863297 
	C354.540192,169.792938 351.174500,168.165298 347.367920,165.456070 
	C334.360046,156.198013 321.137848,147.238861 307.929688,138.265396 
	C302.155090,134.342224 296.068512,131.428726 288.811890,130.792953 
	C282.817444,130.267746 277.599701,127.170525 273.585785,122.491074 
	C270.618500,119.031799 272.036713,113.686714 276.466370,112.534599 
	C279.230316,111.815720 282.240021,112.031380 285.141266,111.858589 
	C285.768768,111.821213 286.543243,112.171082 287.015503,111.913193 
	C297.883453,105.978424 309.187714,108.348953 319.870056,111.470726 
	C330.429932,114.556702 340.224670,119.808891 349.058929,126.862976 
	C357.597900,133.681259 362.938202,142.693268 368.524353,151.635986 
	C375.321838,162.517929 382.525604,173.208084 388.397430,184.578278 
	C391.049866,189.714478 391.223785,196.254883 391.955109,202.227631 
	C392.873932,209.732269 393.211365,217.308090 393.890076,226.012299 
	C395.686981,223.834869 396.814758,222.468262 398.673645,220.215744 
	C397.260468,227.449570 396.068756,233.549652 394.817810,240.100342 
z"/>
<path fill="#e7ebe6" opacity="1.000000" stroke="none" 
	d="
M161.263779,233.999954 
	C161.264786,224.780792 161.264786,216.061646 161.264786,207.342484 
	C161.884781,207.134384 162.504761,206.926300 163.124756,206.718201 
	C177.167938,223.153229 191.211121,239.588242 206.074371,256.983002 
	C206.074371,240.315552 206.074371,224.703690 206.074371,208.865173 
	C211.159775,208.865173 215.931946,208.865173 221.224945,208.865173 
	C221.224945,237.477722 221.224945,265.988220 221.224945,296.038605 
	C206.149826,278.804718 191.843033,262.449188 177.166275,245.670685 
	C177.166275,261.357727 177.166275,276.672913 177.166275,292.951233 
	C172.581070,292.951233 168.282471,293.343506 164.144714,292.700592 
	C162.977097,292.519135 161.511459,289.316986 161.487122,287.482971 
	C161.252899,269.824097 161.297775,252.161484 161.263779,233.999954 
z"/>
<path fill="#e7ebe6" opacity="1.000000" stroke="none" 
	d="
M272.601379,285.421875 
	C267.679810,278.378021 262.970642,271.627289 258.261505,264.876526 
	C257.894379,264.995331 257.527283,265.114105 257.160156,265.232910 
	C257.160156,274.226715 257.160156,283.220520 257.160156,292.924316 
	C252.339767,292.924316 248.068573,292.996368 243.801086,292.901703 
	C240.334244,292.824799 241.173233,290.112213 241.172607,288.104340 
	C241.165985,266.783966 241.205521,245.463577 241.229599,224.143204 
	C241.235214,219.172852 241.230423,214.202515 241.230423,208.094040 
	C253.388458,208.805984 265.377960,208.618591 277.049103,210.454849 
	C287.608185,212.116104 293.293732,220.259323 294.584595,230.563370 
	C295.912262,241.161575 293.656036,251.136505 285.237213,258.605164 
	C282.736603,260.823578 279.413116,262.114502 275.859192,264.184204 
	C282.752716,273.368134 289.606537,282.499237 297.297028,292.744934 
	C291.937958,292.744934 287.383636,292.248505 282.985718,292.865967 
	C276.991882,293.707520 275.621063,288.892883 272.601379,285.421875 
M267.773529,221.210495 
	C265.287994,221.155746 262.735077,220.742279 260.344269,221.191544 
	C259.072693,221.430496 257.139008,223.139893 257.111572,224.226105 
	C256.861237,234.149796 256.964447,244.082413 256.964447,254.378510 
	C260.333038,254.378510 263.292847,254.638947 266.191406,254.328232 
	C273.962158,253.495255 280.085480,244.114944 278.965912,235.368439 
	C278.111023,228.689819 275.942780,223.196808 267.773529,221.210495 
z"/>
<path fill="#e7ebe6" opacity="1.000000" stroke="none" 
	d="
M304.325378,292.856720 
	C302.479980,292.001343 301.006470,291.251984 299.443970,290.457336 
	C300.828552,286.874420 302.205383,283.361450 303.543121,279.833679 
	C304.582306,277.093262 305.728638,276.083954 308.575958,278.360626 
	C315.037109,283.526886 321.858856,280.782898 323.371277,272.614044 
	C323.730042,270.676056 324.027618,268.692322 324.033051,266.728729 
	C324.082001,249.079346 324.059448,231.429749 324.057953,213.780212 
	C324.057831,212.165604 324.057953,210.550995 324.057953,208.875641 
	C329.613831,208.875641 334.722137,208.875641 340.571686,208.875641 
	C340.402893,212.129379 340.084076,215.134323 340.119110,218.135147 
	C340.283875,232.257263 340.658997,246.377838 340.711487,260.499878 
	C340.729889,265.451202 340.366058,270.455048 339.615448,275.348816 
	C337.009033,292.342468 321.550171,297.117432 307.084564,293.624695 
	C306.282288,293.431000 305.492767,293.184570 304.325378,292.856720 
z"/>
<path fill="none" opacity="1.000000" stroke="none" 
	d="
M268.117554,221.450470 
	C275.942780,223.196808 278.111023,228.689819 278.965912,235.368439 
	C280.085480,244.114944 273.962158,253.495255 266.191406,254.328232 
	C263.292847,254.638947 260.333038,254.378510 256.964447,254.378510 
	C256.964447,244.082413 256.861237,234.149796 257.111572,224.226105 
	C257.139008,223.139893 259.072693,221.430496 260.344269,221.191544 
	C262.735077,220.742279 265.287994,221.155746 268.117554,221.450470 
z"/>
</svg>